<svg width="32" height="56" viewBox="0 0 32 56" fill="none" xmlns="http://www.w3.org/2000/svg">
<path fill-rule="evenodd" clip-rule="evenodd" d="M16.7444 36.0939C17.1529 34.0806 17.8139 32.254 18.9354 31.1324C20.1844 29.8834 22.3438 29.1759 24.6683 28.7424C26.7155 28.3606 28.8907 28.1914 30.6847 28.0522C30.6874 28.052 30.6902 28.0518 30.693 28.0515C30.9258 28.0335 31.1521 28.0159 31.371 27.9984C31.1521 27.9809 30.9258 27.9634 30.693 27.9453C30.6902 27.9451 30.6874 27.9449 30.6847 27.9447C28.8907 27.8054 26.7155 27.6362 24.6683 27.2544C22.3438 26.8209 20.1844 26.1134 18.9354 24.8644C17.8139 23.7429 17.1529 21.9162 16.7444 19.903C16.2931 17.6786 16.1501 15.2263 16.0348 13.2453C16.0348 13.2453 16.0348 13.2453 16.0348 13.2453C16.0348 13.245 16.0348 13.2446 16.0348 13.2443C16.0348 13.2443 16.0348 13.2443 16.0348 13.2443C16.0347 13.2429 16.0346 13.2415 16.0345 13.2401L16.0345 13.2401L16.0345 13.2395L16.0344 13.2378C16.0222 13.0283 16.0103 12.824 15.9984 12.6259C15.9865 12.8245 15.9745 13.0294 15.9623 13.2395L15.9623 13.2401L15.9623 13.2401C15.9622 13.2413 15.9621 13.2425 15.9621 13.2437C15.9621 13.2437 15.9621 13.2437 15.9621 13.2438C15.962 13.244 15.962 13.2441 15.962 13.2443C15.962 13.2447 15.962 13.245 15.962 13.2453C15.962 13.2453 15.962 13.2453 15.962 13.2453C15.8467 15.2263 15.7037 17.6786 15.2524 19.903C14.8439 21.9162 14.1829 23.7429 13.0614 24.8644C11.8124 26.1134 9.65297 26.8209 7.32848 27.2544C5.28131 27.6362 3.10613 27.8054 1.31214 27.9447C1.30938 27.9449 1.30661 27.9451 1.30385 27.9453C1.07104 27.9634 0.844667 27.9809 0.625854 27.9984C0.844667 28.0159 1.07104 28.0335 1.30385 28.0515C1.30661 28.0518 1.30938 28.052 1.31214 28.0522C3.10613 28.1914 5.28131 28.3606 7.32848 28.7424C9.65297 29.1759 11.8124 29.8834 13.0614 31.1324C14.1829 32.254 14.8439 34.0806 15.2524 36.0939C15.7037 38.3186 15.8467 40.7713 15.962 42.7525C15.9621 42.7539 15.9622 42.7553 15.9623 42.7567L15.9623 42.7568L15.9623 42.7569L15.9623 42.7571C15.9745 42.9673 15.9865 43.1722 15.9984 43.371C16.0104 43.1721 16.0223 42.9671 16.0345 42.7568L16.0345 42.7567C16.0346 42.7554 16.0347 42.754 16.0348 42.7526C16.0348 42.7526 16.0348 42.7525 16.0348 42.7525C16.0348 42.7525 16.0348 42.7525 16.0348 42.7525C16.0348 42.7525 16.0348 42.7524 16.0348 42.7524C16.0348 42.752 16.0348 42.7516 16.0349 42.7512C16.0349 42.7512 16.0349 42.7512 16.0349 42.7512C16.1502 40.7703 16.2932 38.3181 16.7444 36.0939ZM15.9984 33.2855C16.4382 32.0754 17.0444 30.953 17.9002 30.0972C18.8706 29.1268 20.1988 28.4656 21.6138 27.9984C20.1988 27.5312 18.8706 26.8701 17.9002 25.8997C17.0444 25.0439 16.4382 23.9214 15.9984 22.7113C15.5587 23.9214 14.9524 25.0439 14.0966 25.8997C13.1262 26.8701 11.798 27.5312 10.383 27.9984C11.798 28.4656 13.1262 29.1268 14.0966 30.0972C14.9524 30.953 15.5587 32.0754 15.9984 33.2855Z" fill="black"/>
<path fill-rule="evenodd" clip-rule="evenodd" d="M25.5842 8.90559C22.9128 4.03984 19.4605 1.46405 15.9975 1.46405C12.5345 1.46405 9.08227 4.03984 6.41087 8.90559C3.76872 13.7181 2.08905 20.4662 2.08905 28C2.08905 35.5338 3.76873 42.2819 6.41087 47.0944C9.08227 51.9602 12.5346 54.5359 15.9976 54.5359C19.4606 54.5359 22.9128 51.9602 25.5842 47.0944C28.2264 42.2819 29.906 35.5338 29.906 28C29.906 20.4662 28.2264 13.7181 25.5842 8.90559ZM31.3701 28C31.3701 12.536 24.4876 -4.85776e-06 15.9975 -4.48665e-06C7.50752 -4.11554e-06 0.624998 12.536 0.624999 28C0.624999 43.464 7.50753 56 15.9976 56C24.4876 56 31.3701 43.464 31.3701 28Z" fill="black"/>
<path fill-rule="evenodd" clip-rule="evenodd" d="M26.0269 21.5635C23.5198 19.8026 19.9788 18.667 15.9984 18.667C12.018 18.667 8.47697 19.8026 5.96986 21.5635C3.45846 23.3275 2.08991 25.6253 2.08991 28.0003C2.08991 30.3753 3.45846 32.6732 5.96986 34.4372C8.47697 36.1981 12.018 37.3337 15.9984 37.3337C19.9788 37.3337 23.5198 36.1981 26.0269 34.4372C28.5384 32.6732 29.9069 30.3753 29.9069 28.0003C29.9069 25.6253 28.5384 23.3275 26.0269 21.5635ZM31.371 28.0003C31.371 22.0371 24.4884 17.203 15.9984 17.203C7.50838 17.203 0.625854 22.0371 0.625854 28.0003C0.625854 33.9636 7.50838 38.7977 15.9984 38.7977C24.4884 38.7977 31.371 33.9636 31.371 28.0003Z" fill="black"/>
<path fill-rule="evenodd" clip-rule="evenodd" d="M25.6757 13.5794C23.0876 9.9438 19.6457 7.86947 15.9984 7.86947C12.3512 7.86947 8.90916 9.9438 6.32108 13.5794C3.7352 17.212 2.08991 22.3058 2.08991 28.0002C2.08991 33.6946 3.73521 38.7884 6.32108 42.421C8.90917 46.0566 12.3512 48.1309 15.9984 48.1309C19.6457 48.1309 23.0876 46.0566 25.6757 42.421C28.2616 38.7884 29.9069 33.6946 29.9069 28.0002C29.9069 22.3058 28.2616 17.212 25.6757 13.5794ZM31.371 28.0002C31.371 16.0737 24.4884 6.40542 15.9984 6.40542C7.50838 6.40542 0.625853 16.0737 0.625854 28.0002C0.625854 39.9267 7.50838 49.595 15.9984 49.595C24.4884 49.595 31.371 39.9267 31.371 28.0002Z" fill="black"/>
<path d="M22.5869 28.7324L22.5869 27.2684L31.3712 27.2684L31.3712 28.7324L22.5869 28.7324Z" fill="black"/>
<path d="M0.625854 28.7324L0.625854 27.2684L9.41017 27.2684L9.41017 28.7324L0.625854 28.7324Z" fill="black"/>
<path d="M15.2656 34.406H16.7297V55.4518H15.2656V34.406Z" fill="black"/>
<path d="M15.2656 0.000488281H16.7297V21.0462H15.2656V0.000488281Z" fill="black"/>
<path fill-rule="evenodd" clip-rule="evenodd" d="M23.869 28.0153C23.869 34.0082 26.0677 39.0422 29.0703 41.3259L28.184 42.4912C24.6942 39.8369 22.4049 34.2847 22.4049 28.0153C22.4049 21.7458 24.6942 16.1937 28.1839 13.5393L29.0702 14.7046C26.0677 16.9884 23.869 22.0223 23.869 28.0153Z" fill="black"/>
<path fill-rule="evenodd" clip-rule="evenodd" d="M8.13101 28.0153C8.13101 34.0082 5.9323 39.0422 2.92969 41.3259L3.81599 42.4912C7.3058 39.8369 9.59506 34.2847 9.59506 28.0153C9.59506 21.7458 7.30583 16.1937 3.81607 13.5393L2.92976 14.7046C5.93233 16.9884 8.13101 22.0223 8.13101 28.0153Z" fill="black"/>
</svg>
