<svg width="62" height="62" viewBox="0 0 62 62" fill="none" xmlns="http://www.w3.org/2000/svg">
<path d="M61.8799 31.1509C61.8799 48.1242 48.1203 61.8838 31.147 61.8838C14.1737 61.8838 0.414062 48.1242 0.414062 31.1509C0.414062 14.1776 14.1737 0.417969 31.147 0.417969C48.1203 0.417969 61.8799 14.1776 61.8799 31.1509Z" fill="#FF5100"/>
<path fill-rule="evenodd" clip-rule="evenodd" d="M31.716 31.7208H2.69043C3.06592 31.6983 3.45305 31.6757 3.85023 31.6526C10.9763 31.2379 21.3391 30.6348 25.7985 26.1753C30.2369 21.737 31.0541 11.2094 31.6157 3.97547C31.6498 3.53588 31.683 3.10846 31.716 2.69531C31.7489 3.10846 31.7821 3.53588 31.8162 3.97547C32.3778 11.2094 33.195 21.737 37.6334 26.1753C42.0928 30.6348 52.4556 31.2379 59.5817 31.6526C59.9789 31.6757 60.366 31.6983 60.7415 31.7208H31.716ZM31.716 31.7208L60.7415 31.7208C60.366 31.7434 59.9789 31.766 59.5817 31.7891C52.4556 32.2038 42.0928 32.8069 37.6334 37.2664C33.195 41.7047 32.3778 52.2323 31.8162 59.4662L31.8162 59.4663C31.7821 59.9059 31.7489 60.3332 31.716 60.7464C31.683 60.3332 31.6498 59.9058 31.6157 59.4662C31.0541 52.2323 30.2369 41.7047 25.7985 37.2664C21.3391 32.8069 10.9763 32.2038 3.85022 31.7891C3.45304 31.766 3.06592 31.7434 2.69043 31.7208L31.716 31.7208Z" fill="black"/>
</svg>
