<svg id="Layer_1" data-name="Layer 1" xmlns="http://www.w3.org/2000/svg" viewBox="0 0 174 46"><defs><style>.cls-1{fill-rule:evenodd;}.cls-2{fill:#ff4f00;}</style></defs><title>Artboard 1</title><path d="M96.8,21.2c2.1,0,3.3-1.1,3.3-2.7s-1.2-2.1-2.7-2.5c-1.8-.6-2.1-.7-2.1-1.4s.7-1,1.3-1A1.41,1.41,0,0,1,98.2,15h1.7c0-2-1.6-2.7-3.2-2.7s-3,.8-3,2.5,1.2,2.1,2.8,2.5,2,.6,2,1.4-.7,1.1-1.6,1.1-1.7-.4-1.7-1.6H93.5C93.4,20.4,94.9,21.2,96.8,21.2Z"/><path d="M101.5,21h1.7V17.6h1.5c2.4,0,3.1-1.3,3.1-2.7s-.8-2.5-3-2.5h-3.4V21Zm1.7-4.8V13.9h1.5c.8,0,1.5.3,1.5,1.1,0,1-.7,1.2-1.5,1.2Z"/><path d="M113.7,21h1.8l-3.1-8.6h-1.8L107.5,21h1.7l.7-2.1h3Zm-3.2-3.7,1-2.9h0l.9,2.9Z"/><path d="M119.8,21.2a3.5,3.5,0,0,0,3.6-3.1h-1.7a1.8,1.8,0,0,1-1.9,1.5c-1.7,0-2.3-1.4-2.3-2.9s.6-2.9,2.3-2.9a1.86,1.86,0,0,1,1.9,1.5h1.7c-.2-1.6-1.1-3-3.6-3s-4,1.9-4,4.5S117.3,21.2,119.8,21.2Z"/><path d="M124.8,21h6.1V19.5h-4.4V17.3h3.9V15.8h-3.9v-2h4.3V12.3h-6Z"/><path d="M135.8,21.2a3.5,3.5,0,0,0,3.6-3.1h-1.7a1.8,1.8,0,0,1-1.9,1.5c-1.7,0-2.3-1.4-2.3-2.9s.6-2.9,2.3-2.9a1.86,1.86,0,0,1,1.9,1.5h1.7c-.2-1.6-1.1-3-3.6-3s-4,1.9-4,4.5S133.3,21.2,135.8,21.2Z"/><path d="M145.9,21h1.8l-3.1-8.6h-1.8L139.7,21h1.7l.7-2.1h3Zm-3.2-3.7,1-2.9h0l.9,2.9Z"/><path d="M148.7,21h3a4.18,4.18,0,0,0,4.4-4.3,4,4,0,0,0-4.3-4.2h-3V21Zm1.7-1.6V14h1c2,0,2.9,1,2.9,2.6,0,1.9-1.1,2.7-2.9,2.7h-1Z"/><path d="M157.4,21h6.1V19.5h-4.4V17.3H163V15.8h-3.9v-2h4.3V12.3h-6V21Z"/><path d="M166.7,21h1.7V13.9h2.5V12.4h-6.6v1.5h2.5V21Z"/><path d="M93.6,35h5.7V34H95a3.34,3.34,0,0,1,1.6-1.8c1.5-1,2.6-1.9,2.6-3.2,0-1.5-1-2.4-2.7-2.4s-2.8,1.1-2.8,3.1h1.1c0-1.2.4-2,1.6-2s1.6.5,1.6,1.4-.5,1.4-1.6,2.1C94.3,32.5,93.6,33.5,93.6,35Z"/><path d="M103.4,35.2c1.8,0,2.9-1.5,2.9-4.3s-1.1-4.3-2.9-4.3-2.9,1.5-2.9,4.3S101.6,35.2,103.4,35.2Zm0-1c-1.5,0-1.7-2.1-1.7-3.3s.2-3.3,1.7-3.3,1.7,2.1,1.7,3.3S104.9,34.2,103.4,34.2Z"/><path d="M107.6,35h5.7V34H109a3.34,3.34,0,0,1,1.6-1.8c1.5-1,2.6-1.9,2.6-3.2,0-1.5-1-2.4-2.7-2.4s-2.8,1.1-2.8,3.1h1.1c0-1.2.4-2,1.6-2s1.6.5,1.6,1.4-.5,1.4-1.6,2.1C108.3,32.5,107.6,33.5,107.6,35Z"/><path d="M117.4,35.2c1.8,0,2.9-1.5,2.9-4.3s-1.1-4.3-2.9-4.3-2.9,1.5-2.9,4.3S115.6,35.2,117.4,35.2Zm0-1c-1.5,0-1.7-2.1-1.7-3.3s.2-3.3,1.7-3.3,1.7,2.1,1.7,3.3S118.9,34.2,117.4,34.2Z"/><path class="cls-1" d="M70.6,37.3c7.3-4,11.2-9.2,11.2-14.3S77.9,12.7,70.6,8.7,53.3,2.2,42,2.2,20.6,4.7,13.4,8.7,2.2,17.8,2.2,23,6.1,33.3,13.4,37.3,30.7,43.8,42,43.8,63.4,41.3,70.6,37.3ZM42,46c23.2,0,42-10.3,42-23S65.2,0,42,0,0,10.3,0,23,18.8,46,42,46Z"/><path class="cls-2" d="M42.5,22.5V6c-.3,4.1-.7,10.7-3.4,13.3S30,22.3,26,22.5Z"/><path class="cls-2" d="M42.5,22.5V39c.3-4.1.7-10.7,3.4-13.3s9.1-3,13.1-3.2Z"/><path class="cls-2" d="M42.5,22.5V6c.3,4.1.7,10.7,3.4,13.3s9.1,3,13.1,3.2Z"/><path class="cls-2" d="M42.5,22.5V39c-.3-4.1-.7-10.7-3.4-13.3S30,22.7,26,22.5Z"/></svg>