<svg width="48" height="48" viewBox="0 0 48 48" fill="none" xmlns="http://www.w3.org/2000/svg">
<path d="M24.0001 24V0C24.4763 5.96342 25.0001 15.5218 28.8929 19.4147C32.7858 23.3075 42.1191 23.6464 48.0001 24H24.0001Z" fill="black"/>
<path d="M24.0001 24L24.0001 48C23.5239 42.0366 23.0001 32.4782 19.1072 28.5853C15.2143 24.6925 5.88099 24.3536 3.03268e-05 24L24.0001 24Z" fill="black"/>
<path d="M24.0001 24V0C23.5239 5.96342 23.0001 15.5218 19.1072 19.4147C15.2143 23.3075 5.88099 23.6464 3.24249e-05 24H24.0001Z" fill="black"/>
<path d="M24.0001 24L24.0001 48C24.4763 42.0366 25.0001 32.4782 28.8929 28.5853C32.7858 24.6925 42.1191 24.3536 48.0001 24L24.0001 24Z" fill="black"/>
</svg>
